<svg width="800" height="156" viewBox="0 0 800 156" fill="none" xmlns="http://www.w3.org/2000/svg">
<path d="M0 155.18H77.59L0 77.58V155.18Z" fill="#00CD69"/>
<path d="M77.59 155.18H155.19V77.58L77.59 155.18Z" fill="#00CD69"/>
<path d="M77.59 0L155.19 77.59V0H77.59Z" fill="#00CD69"/>
<path d="M0 0V77.59L77.59 0H0Z" fill="#00CD69"/>
<path d="M225.54 36.84V49.71H241.63L214.29 116.38H234.29L240.39 99.9999H274.52L280.73 116.38H301.42L268.77 36.84H225.54ZM245.88 85.54L257.28 55.02L268.92 85.54H245.88Z" fill="black"/>
<path d="M351.17 66.12C348.45 61.63 342.32 56.6 332.53 56.6C317.39 56.6 305.53 67.45 305.53 86.09C305.53 104.48 317.39 115.35 332.53 115.35C341.59 115.35 347.47 111.05 350.5 106.84V112.18C350.5 122.92 341.91 126.65 333.1 126.65C325.2 126.71 317.47 124.34 310.96 119.87V134.21C317.05 137.83 325.07 140.08 336.04 140.08C354.43 140.08 368.58 130.71 368.58 112.49V57.93H351.18V66.12H351.17ZM337.37 101.69C329.12 101.69 323.69 95.47 323.69 86.1C323.59 76.49 329.12 70.4999 337.37 70.4999C342.24 70.4199 346.94 72.24 350.47 75.59V96.49C346.96 99.88 342.25 101.74 337.37 101.69Z" fill="black"/>
<path d="M408.57 71.07L405.74 57.9701H378.63V70.1801H390.72V116.39H408.9V80.46C411.5 76.28 416.59 73 425.97 73C428.37 73.01 430.76 73.3201 433.08 73.9101V57.6501C431.47 57.0001 429.74 56.6901 428 56.7401C416.36 56.7201 410.04 63.62 408.57 71.07Z" fill="black"/>
<path d="M471.51 56.61C452.65 56.61 438.75 68.82 438.75 87.23C438.75 105.64 452.65 117.74 471.51 117.74C490.15 117.74 504.16 105.65 504.16 87.23C504.17 68.81 490.15 56.61 471.51 56.61ZM471.51 103.5C462.81 103.5 456.94 96.72 456.94 87.22C456.94 77.73 462.81 70.8199 471.51 70.8199C480.21 70.8199 485.98 77.59 485.98 87.2C485.98 96.81 480.1 103.48 471.51 103.48" fill="black"/>
<path d="M548.93 56.61C545.59 56.51 542.28 57.2 539.25 58.62C536.23 60.04 533.58 62.15 531.53 64.79V34.25H513.35V116.39H530.75V108.48C533.61 112.99 539.61 117.74 548.93 117.74C564.07 117.74 575.94 106.44 575.94 87.23C575.94 68.02 564.07 56.61 548.93 56.61ZM544.07 103.5C539.42 103.55 534.93 101.81 531.53 98.64V75.77C534.9 72.55 539.4 70.77 544.07 70.83C552.44 70.83 557.75 77.27 557.75 87.21C557.75 97.15 552.44 103.49 544.07 103.49" fill="black"/>
<path d="M642.15 101.69V79.4399C642.15 65.3099 631.3 56.61 613.79 56.61C602.94 56.61 595.15 58.98 589.38 62.48V76.72C595.66 72.39 603.11 70.06 610.74 70.05C618.79 70.05 624.53 73.0999 624.53 80.9999V82.52C620.33 81.42 616 80.87 611.66 80.9C597.42 80.9 584.43 86.54 584.43 99.53C584.43 110.16 593.91 117.73 606.58 117.73C616.55 117.73 621.89 114.28 625.18 109.98C627.04 115.2 632.79 117.73 638.55 117.73C642.3 117.88 646.03 117.09 649.4 115.43V104.96C648.45 105.24 647.46 105.4 646.47 105.42C644.09 105.42 642.17 104.4 642.17 101.68H642.15V101.69ZM612.22 105.42C606.35 105.42 602.61 102.71 602.61 98.64C602.61 93.33 608.71 91.5099 614.1 91.5099C617.6 91.5099 621.08 92 624.44 92.97V99.87C622.94 101.66 621.05 103.09 618.92 104.05C616.79 105.01 614.47 105.47 612.13 105.4" fill="black"/>
<path d="M699.67 56.61C695.75 56.54 691.87 57.41 688.35 59.14C684.83 60.87 681.78 63.41 679.44 66.55L677.64 57.96H650.51V70.17H662.6V116.38H680.8V75.7C683.4 72.88 687.58 71.41 692.1 71.41C699.44 71.41 703.59 75.02 703.59 82.71V116.38H721.77V77.52C721.77 63.84 712.29 56.61 699.63 56.61" fill="black"/>
<path d="M799.89 116.2V104.18H791.51L777.51 84.07L795.91 57.97H777.76L762.97 79.21H754.91V34.25H736.73V116.39H754.91V92.22H763.09L779.12 116.39H779.65H799.88H800L799.89 116.2Z" fill="black"/>
</svg>
